<?xml version="1.0" standalone="no"?>
<!DOCTYPE svg PUBLIC "-//W3C//DTD SVG 20010904//EN"
 "http://www.w3.org/TR/2001/REC-SVG-20010904/DTD/svg10.dtd">
<svg version="1.0" xmlns="http://www.w3.org/2000/svg"
 width="200.000000pt" height="95.000000pt" viewBox="0 0 200.000000 95.000000"
 preserveAspectRatio="xMidYMid meet">

<g transform="translate(0.000000,95.000000) scale(0.100000,-0.100000)"
fill="brown" stroke="none">
<path d="M1780 926 c-19 -36 -5 -174 27 -268 25 -73 27 -76 59 -80 39 -5 39
-7 25 124 -6 57 -19 101 -47 163 -22 47 -42 85 -45 85 -3 0 -11 -11 -19 -24z
m61 -90 c29 -68 31 -85 9 -71 -17 10 -68 118 -63 133 9 25 25 6 54 -62z"/>
<path d="M1105 623 c-94 -47 -128 -71 -120 -83 3 -4 45 -22 93 -39 l89 -32 84
25 c165 50 261 68 369 70 l104 1 27 -105 c35 -131 35 -139 9 -115 -19 18 -23
17 -123 -13 -453 -139 -1087 -241 -1370 -221 -72 5 -98 3 -124 -9 -38 -18 -38
-27 0 -56 24 -18 33 -19 78 -10 48 10 51 10 62 -13 12 -26 14 -27 88 -13 30 5
162 26 294 45 942 141 1176 200 1175 297 -1 46 -48 230 -63 246 -19 18 -70 20
-254 8 l-131 -9 -71 37 c-38 20 -83 36 -98 35 -15 0 -68 -21 -118 -46z m193
-3 c28 -17 52 -35 52 -40 0 -9 -123 -50 -149 -50 -25 0 -4 25 29 36 45 15 47
26 10 47 -29 17 -33 37 -7 37 7 0 36 -14 65 -30z"/>
<path d="M503 595 c-18 -8 -33 -16 -33 -19 0 -3 14 -25 31 -50 l32 -44 49 15
c28 8 53 12 56 8 12 -11 -15 -40 -47 -49 -33 -9 -36 -13 -23 -34 7 -10 15 -10
36 -2 37 14 46 13 46 -5 0 -9 -11 -20 -25 -25 -30 -11 -30 -10 -4 -54 l20 -35
-69 -20 c-38 -12 -83 -21 -99 -21 -36 0 -90 40 -168 127 -67 74 -104 90 -174
73 -58 -14 -111 -44 -111 -65 0 -11 5 -13 26 -5 14 6 35 10 47 10 l22 -1 -24
-19 c-13 -11 -31 -20 -41 -20 -20 0 -50 -25 -50 -42 0 -6 11 -8 24 -6 21 4 35
-8 95 -83 56 -70 74 -86 90 -82 23 6 24 4 -31 85 -45 67 -46 76 -14 84 25 6
54 -7 116 -52 19 -14 54 -30 78 -36 l45 -11 -23 -17 c-13 -9 -19 -20 -14 -23
5 -3 83 10 173 28 l164 33 22 -26 22 -26 189 37 c334 66 437 98 406 129 -9 9
-445 168 -607 222 -117 39 -179 44 -232 21z"/>
<path d="M1845 518 c17 -81 27 -108 41 -108 8 0 35 20 60 46 54 53 49 67 -27
83 -78 17 -82 16 -74 -21z m108 -7 c5 -5 -11 -13 -35 -19 -44 -11 -57 -5 -58
27 0 10 10 12 43 7 23 -4 46 -11 50 -15z"/>
<path d="M1554 532 c-6 -4 -14 -17 -18 -29 -9 -27 -15 -28 -42 -8 -22 16 -70
20 -79 5 -3 -5 12 -21 35 -36 42 -28 47 -42 30 -75 -8 -15 -7 -19 5 -19 27 0
16 -20 -15 -27 -30 -6 -47 -19 -37 -30 3 -3 29 1 56 8 48 12 51 14 51 46 0 40
12 42 34 8 13 -20 22 -24 39 -19 32 10 34 14 12 32 -52 43 -56 55 -40 102 8
23 15 44 15 46 0 7 -35 4 -46 -4z"/>
<path d="M1901 381 c-23 -18 -24 -22 -18 -109 5 -75 12 -103 43 -171 20 -44
40 -81 44 -81 42 0 39 158 -5 293 -16 48 -32 87 -35 87 -3 0 -16 -9 -29 -19z
m49 -221 c29 -58 38 -100 22 -100 -16 0 -76 143 -65 154 10 10 12 8 43 -54z"/>
</g>
</svg>
